<svg height="1128" viewBox="0 0 846 846" width="1128" xmlns="http://www.w3.org/2000/svg"><path d="m163.9 110.8c0 .9-.1 37.6-.1 81.4-.1 43.9-.3 79.8-.4 79.8-.4 0-23-13.4-107.4-63.4-29.4-17.5-53.9-31.8-54.4-31.9-.6-.1-1 76-1 189.1-.1 167.1.1 189.5 1.4 190.6.8.8 6.5 3.9 12.5 7.1 10.6 5.6 19.2 10.1 32.3 17.1 14.4 7.8 19.3 10.4 29.7 15.9 6.1 3.2 13.3 7 16 8.5 2.8 1.5 10 5.3 16 8.5 6.1 3.2 12.4 6.5 14 7.5 1.7 1 8.4 4.6 15 8 6.6 3.5 17.6 9.3 24.5 13s16.8 9 22 11.7c5.2 2.8 11.9 6.3 14.8 7.9 7.6 4.1 14.7 7.9 29.7 15.8 7.2 3.8 22.2 11.8 33.5 17.8 32.3 17.3 36 19.3 45.5 24.3 24.6 13 28.2 14.9 31 16.6l3 1.7 29-14.2c16-7.9 40.7-20 55-27s26.7-13.1 27.5-13.6c.8-.6 2.4-1.4 3.5-1.9s18.7-9.1 39-19.1c20.4-10 51.4-25.3 69-34s49.6-24.4 71-35c21.5-10.6 50.3-24.8 64-31.5 13.8-6.8 48.4-23.8 77-38 28.6-14.1 55.9-27.5 60.7-29.8l8.8-4.2v-190.3c0-104.7-.3-190.1-.7-189.9-.5.3-4.6 2.3-9.3 4.5s-15.2 7.2-23.5 11.2c-8.2 4-19 9.1-24 11.5-4.9 2.4-15.7 7.5-24 11.5-8.2 4-19.5 9.4-25 12-11.6 5.5-28.7 13.7-50 24-8.2 4-19 9.2-24 11.5-4.9 2.4-15.3 7.3-23 11s-18.9 9.1-25 12c-6 2.9-16.8 8-24 11.5-7.1 3.4-17.5 8.4-23 11s-17.2 8.3-26 12.5c-8.8 4.3-21.1 10.2-27.4 13.1l-11.4 5.5-13.6-6.5c-7.5-3.5-20.8-9.9-29.5-14.1-8.8-4.2-19.6-9.4-24-11.5-4.5-2.1-14.4-6.8-22.1-10.5s-17.6-8.4-22-10.5-13.8-6.6-21-10c-7.1-3.4-17.5-8.4-23-11s-15.4-7.3-22-10.5c-6.6-3.1-15.1-7.2-19-9-3.8-1.8-14.6-7-24-11.5-9.3-4.5-19.7-9.4-23-11-3.3-1.5-11.8-5.6-19-9-7.1-3.4-16.6-7.9-21-10s-15.2-7.2-24-11.5c-32.2-15.6-34.5-16.5-34.6-14.7zm103.8 94.3c32.3 16 84.7 42 116.3 57.6 125.3 62.1 124 61.5 124 58.3 0-.6.4-1 .9-1s65.9-32.4 145.3-71.9c79.3-39.6 144.4-71.8 144.6-71.6.3.2.6 19.2.8 42.2.3 51.7 1.5 203.2 1.7 228.3l.2 18.5-38.2 19c-36.9 18.4-68.5 34-196.5 97.4-33.4 16.6-61.2 30.1-61.8 30.1-1.3 0-18.4-8.4-227.5-112-33.5-16.6-62.8-31.1-65.1-32.1l-4.1-2v-144.9c0-79.8.2-145 .3-145s26.7 13.1 59.1 29.1zm-184.1 66.6c20.6 13.1 45.2 28.7 54.7 34.7 9.4 5.9 19 12 21.2 13.5l4 2.7.1 83.2c.1 45.8.3 83.4.5 83.6s12.8 6.4 27.9 13.9c32.4 15.9 84.5 41.5 134 66 75 37 121.7 59.9 127.2 62.5 3.1 1.5 5.7 2.9 5.7 3.2.1.5-37 19-94.8 47.2l-22.3 10.9-6.2-3.2c-3.3-1.7-9.5-5.1-13.6-7.4s-11.1-6.1-15.5-8.4-9.8-5.2-12-6.5c-2.2-1.2-8.5-4.6-14-7.6-5.5-2.9-13.8-7.4-18.5-10s-9.2-5-10-5.3c-.8-.4-3.5-1.9-6-3.3s-7.6-4.2-11.4-6.2c-6.8-3.7-8.8-4.8-24.1-13.1-13.2-7.2-31.5-17.1-39.5-21.4-6.9-3.7-36.9-20-65.5-35.5-15.3-8.3-22.1-11.9-32-17.3-4.4-2.4-10.7-5.8-14-7.6s-7.9-4.3-10.2-5.5l-4.3-2.2v-142.3c0-78.3.3-142.3.6-142.3s17.4 10.7 38 23.7z"/></svg>